<?xml version="1.0" encoding="UTF-8" standalone="no"?>
<!DOCTYPE svg PUBLIC "-//W3C//DTD SVG 1.1//EN" "http://www.w3.org/Graphics/SVG/1.1/DTD/svg11.dtd">
<!-- Created with Vectornator (http://vectornator.io/) -->
<svg height="1080.0px" stroke-miterlimit="10" style="fill-rule:nonzero;clip-rule:evenodd;stroke-linecap:round;stroke-linejoin:round;" version="1.1" viewBox="0 0 1920 1080" width="1920.0px" xml:space="preserve" xmlns="http://www.w3.org/2000/svg" xmlns:vectornator="http://vectornator.io" xmlns:xlink="http://www.w3.org/1999/xlink">
<defs/>
<clipPath id="ArtboardFrame">
<rect height="1080" width="1920" x="0" y="0"/>
</clipPath>
<g clip-path="url(#ArtboardFrame)" id="Layer-2" vectornator:layerName="Layer 2">
<path d="M-0.320552 1082.94C-14.149 1076.03-7.73687 1047.84-10.2307 1035.37C-18.7541 992.757-13.4471 945.957-22.1229 902.578C-24.9527 888.429-34.7811 865.776-20.1409 856.991C-0.704915 845.33 30.9348 850.131 51.2123 853.027C75.9732 856.565 96.7432 846.097 120.583 843.117C132.049 841.684 145.88 847.175 156.26 845.099C171.757 842 196.562 825.775 211.757 837.171C222.26 845.048 238.458 857.228 245.451 868.884C253.33 882.015 270.89 910.424 287.074 914.47C300.297 917.776 314.586 870.708 326.715 878.794C342.052 889.019 349.724 913.695 362.391 926.362C371.571 935.543 455.148 935.163 469.421 932.309C479.541 930.285 486.001 918.749 495.187 916.452C514.499 911.624 540.947 914.113 558.612 906.542C572.811 900.457 588.523 877.833 596.271 864.92C606.15 848.454 606.382 825.01 618.073 809.423C620.781 805.813 627.468 807.331 629.965 805.459C634.257 802.24 634.843 795.652 637.894 791.584C643.343 784.319 653.309 779.106 657.714 771.764C661.306 765.777 677.283 733.673 683.48 732.123C688.933 730.76 696.542 750.199 699.337 753.926C706.35 763.277 714.723 774.553 719.157 785.638C723.152 795.626 722.988 813.254 731.049 821.315C740.729 830.995 739.772 831.471 752.851 823.297C757.227 820.562 760.616 816.483 764.744 813.387C765.925 812.5 768.708 809.927 768.708 811.405C768.708 817.747 757.112 828.446 758.797 835.189C759.819 839.277 784.906 853.881 788.528 862.937C794.476 877.807 798.635 890.338 812.312 900.596C816.784 903.95 824.406 904.033 828.169 906.542C831.969 909.076 828.9 913.327 830.151 916.452C834.149 926.448 852.219 932.508 859.881 938.255C867.86 944.239 874.782 958.246 885.647 960.057C907.406 963.683 936.789 964.505 958.983 962.039C969.266 960.896 978.728 955.359 988.713 954.111C992.456 953.643 1004.54 956.106 1008.53 954.111C1016.47 950.141 1020.17 934.551 1026.37 928.345C1033.28 921.441 1044.23 918.402 1050.16 910.506C1058.46 899.434 1065.68 887.829 1073.94 876.812C1082.28 865.692 1083 850.477 1089.8 839.153C1092.62 834.451 1098.22 832.714 1101.69 829.243C1105.59 825.344 1106.29 817.82 1109.62 813.387C1125.83 791.765 1136.62 757.086 1165.11 749.962C1178.3 746.666 1205.96 788.488 1208.72 799.512C1213.28 817.774 1241.6 872.035 1254.31 884.74C1264.29 894.729 1281.69 901.173 1293.95 908.524C1300.96 912.733 1309.57 920.766 1317.73 922.398C1376.46 934.144 1430.9 905.774 1488.19 898.614C1531.12 893.247 1577.19 896.632 1620.98 896.632C1634.59 896.632 1647.45 894.315 1660.62 892.668C1674.83 890.892 1690.43 892.351 1704.23 894.65C1734.62 899.716 1770.54 894.65 1801.35 894.65C1839.47 894.65 1878.08 886.722 1916.3 886.722C1925.2 886.722 1931.55 889.264 1940.09 890.686C1944 891.338 1949.18 887.883 1951.98 890.686C1954.07 892.775 1948.6 895.717 1948.02 898.614C1946.61 905.656 1947 917.26 1948.02 924.38C1949.01 931.303 1952.83 937.422 1953.96 944.201C1961.31 988.287 1951.98 1034.4 1951.98 1078.98" fill="#34332f" fill-rule="nonzero" opacity="1" stroke="#000000" stroke-linecap="round" stroke-linejoin="round" stroke-width="0"/>
</g>
</svg>
