<?xml version="1.0" encoding="UTF-8" standalone="no"?>
<!DOCTYPE svg PUBLIC "-//W3C//DTD SVG 1.1//EN" "http://www.w3.org/Graphics/SVG/1.1/DTD/svg11.dtd">
<!-- Created with Vectornator (http://vectornator.io/) -->
<svg height="1080.0px" stroke-miterlimit="10" style="fill-rule:nonzero;clip-rule:evenodd;stroke-linecap:round;stroke-linejoin:round;" version="1.1" viewBox="0 0 1920 1080" width="1920.0px" xml:space="preserve" xmlns="http://www.w3.org/2000/svg" xmlns:xlink="http://www.w3.org/1999/xlink">
<defs/>
<clipPath id="ArtboardFrame">
<rect height="1080" width="1920" x="0" y="0"/>
</clipPath>
<g clip-path="url(#ArtboardFrame)" id="Layer-1">
<path d="M1433.76 2078.2C1433.76 2064.27 1433.57 2051.04 1435.54 2037.25" fill="#000000" fill-rule="nonzero" opacity="1" stroke="#000000" stroke-linecap="round" stroke-linejoin="round" stroke-width="1.22078"/>
<path d="M-2.97674 1152.94C-8.81583 1141.26 0.908223 1099.22 0.908223 1083.01C0.908223 1065.43 3.68867 991.887 12.5631 980.055C42.8251 939.706 93.4963 940.666 136.882 933.435C150.037 931.243 168.087 928.798 181.559 931.493C200.398 935.261 212.399 956.08 226.236 966.457C261.407 992.836 288.322 1036.37 335.015 1048.04C369.89 1056.76 442.041 1065.38 472.931 1042.21C495.537 1025.26 510.367 999.083 533.148 981.997C565.961 957.387 589.275 922.599 620.56 896.528C625.661 892.277 630.986 892.167 636.1 888.758C659.551 873.124 677.261 853.548 700.202 838.254C727.759 819.882 776.064 783.882 810.923 789.692C825.989 792.203 837.11 800.843 849.773 807.174C864.4 814.488 884.262 820.296 896.392 832.426C915.828 851.862 934.93 869.472 956.609 886.816C972.984 899.916 983.446 918.775 999.344 931.493C1030.1 956.101 1065.81 971.289 1102.3 985.882C1119.89 992.921 1135.93 1002.62 1154.74 1005.31C1178.16 1008.65 1204.31 1003.94 1226.61 999.48C1237.29 997.345 1239.35 986.74 1246.04 980.055C1253.96 972.138 1267.31 970.437 1275.18 962.573C1285.02 952.729 1292.33 939.591 1302.37 929.55C1314.98 916.938 1326.66 901.377 1339.28 888.758C1352.24 875.792 1372.85 865.039 1387.84 853.794C1398.55 845.762 1403.76 832.044 1413.09 822.714C1419.77 816.037 1427.98 809.766 1434.46 803.289C1444.62 793.133 1467.65 790.436 1481.08 787.749C1535.94 776.777 1591.2 785.525 1646.19 791.634C1655.88 792.71 1661.08 798.541 1669.5 801.347C1677.1 803.88 1690.47 804.21 1698.64 805.232C1727.85 808.883 1757.42 803.391 1786.05 809.117C1805.59 813.025 1816.38 806.936 1834.61 803.289C1851.32 799.947 1869.84 801.347 1887.06 801.347C1891.81 801.347 1914.88 798.091 1918.14 801.347C1924.79 807.996 1922.02 857.218 1922.02 867.391C1922.02 884.677 1919.18 904.748 1922.02 921.78C1924.16 934.611 1930.19 944.673 1927.85 958.688C1922.99 987.851 1920.08 1018.11 1920.08 1048.04C1920.08 1057.62 1921.77 1121.73 1925.91 1123.8" fill="#000000" fill-rule="nonzero" opacity="1" stroke="#000000" stroke-linecap="round" stroke-linejoin="round" stroke-width="1.33181"/>
</g>
</svg>
