<?xml version="1.0" encoding="UTF-8" standalone="no"?>
<!DOCTYPE svg PUBLIC "-//W3C//DTD SVG 1.1//EN" "http://www.w3.org/Graphics/SVG/1.1/DTD/svg11.dtd">
<!-- Created with Vectornator (http://vectornator.io/) -->
<svg height="100.0pt" stroke-miterlimit="10" style="fill-rule:nonzero;clip-rule:evenodd;stroke-linecap:round;stroke-linejoin:round;" version="1.1" viewBox="0 0 100 100" width="100.0pt" xml:space="preserve" xmlns="http://www.w3.org/2000/svg" xmlns:xlink="http://www.w3.org/1999/xlink">
<defs/>
<g id="Layer-1">
<path d="M52.7714 6.78348C47.3118 9.42088 47.5317 34.242 39.9512 36.7688C36.8048 37.8176 5.8355 38.337 5.8355 39.6654C5.8355 44.4194 36.3036 49.7833 36.3036 57.9033C36.3036 69.7241 11.7003 89.48 23.4297 90.9462C32.5053 92.0807 43.4128 76.5009 52.1813 73.9956C57.1699 72.5703 76.2729 92.7096 79.3237 89.6588C86.4257 82.5567 65.5916 72.8822 65.5916 62.8383C65.5916 51.2088 103.994 47.2265 93.5922 42.0256C85.8272 38.1431 68.8581 46.5796 61.6221 39.3436C59.5319 37.2533 63.0198 1.83268 52.7714 6.78348Z" fill="#fff6d6" fill-rule="nonzero" opacity="1" stroke="#000000" stroke-linecap="round" stroke-linejoin="round" stroke-width="1.22078"/>
</g>
</svg>
