<?xml version="1.0" encoding="UTF-8" standalone="no"?>
<!DOCTYPE svg PUBLIC "-//W3C//DTD SVG 1.1//EN" "http://www.w3.org/Graphics/SVG/1.1/DTD/svg11.dtd">
<!-- Created with Vectornator (http://vectornator.io/) -->
<svg height="200.0pt" stroke-miterlimit="10" style="fill-rule:nonzero;clip-rule:evenodd;stroke-linecap:round;stroke-linejoin:round;" version="1.1" viewBox="0 0 200 200" width="200.0pt" xml:space="preserve" xmlns="http://www.w3.org/2000/svg" xmlns:xlink="http://www.w3.org/1999/xlink">
<defs/>
<g id="Layer-1">
<g opacity="1">
<path d="M179.515 105.379C179.099 104.029 180.047 101.994 180.08 100.501C180.18 96.0998 179.487 91.4446 179.133 87.061C178.369 77.5942 177.285 68.1577 175.506 58.8333C174.521 53.669 173.884 48.6873 171.637 43.8485C168.731 37.5893 163.329 31.8701 158.541 27.0064C154.527 22.9284 149.749 18.4774 144.221 16.5619C141.038 15.4588 137.325 15.757 134.057 15.9343C126.248 16.3579 118.09 15.1314 110.32 14.6022C99.2844 13.8506 88.8567 9.85162 77.6721 9.99836C73.1541 10.0576 68.7798 10.3967 66.6398 15.0941C64.7467 19.2496 68.3694 26.721 70.8526 29.9729C78.9781 40.6136 88.8082 49.8617 97.2924 60.1942C103.454 67.6981 109.255 75.8845 116.115 82.7948C119.412 86.1169 123.29 88.8487 126.826 91.9069C135.995 99.8368 145.248 107.746 154.728 115.281C158.328 118.142 161.302 121.303 165.465 123.257C169.356 125.082 179.221 127.891 183.057 124.791C185.988 122.423 181.683 111.187 180.76 108.193C179.38 103.719 179.661 98.9289 179.482 94.2902C179.408 92.3859 178.865 90.5874 178.698 88.7002C177.889 79.5336 179.094 71.2948 175.138 62.5209C173.633 59.1809 171.623 54.5441 171.708 50.7871C171.726 49.9702 172.076 47.4256 170.991 47.2456" fill="#08E8FE" fill-rule="nonzero" opacity="1" stroke="none"/>
<g opacity="1">
<path d="M103.531 44.4062C102.566 44.5645 101.629 44.9143 100.75 45.4688C97.2337 47.6866 96.1571 52.3274 98.375 55.8438C99.3271 57.2718 100.129 58.7914 100.719 60.4062C101.148 61.5818 101.48 62.7917 101.656 64.0312C101.742 64.6352 101.765 65.2334 101.75 65.8438C101.684 68.5369 100.28 69.1322 97.7812 69.9688C96.7566 70.3117 95.7267 70.5806 94.6875 70.875C92.1804 71.5852 89.7108 72.3607 87.25 73.2188C85.5086 73.826 83.755 74.4194 82.0625 75.1562C77.3129 77.2239 72.7707 80.1492 69.125 83.8438C63.0316 90.0188 59.5071 98.3519 59.5938 107.031C59.6195 109.609 59.8958 112.154 60.125 114.719C60.5195 119.133 60.7162 123.763 57.9375 127.5C54.9987 131.452 50.2947 133.17 45.7188 134.438C39.0543 136.283 31.4299 137.436 26.5625 142.844C24.1463 145.528 23.6524 148.363 22.875 151.75C23.7219 149.238 24.3715 146.585 26.1875 144.562C29.454 140.925 34.2055 139.466 38.875 138.594C45.9003 137.281 53.7565 137.055 59.5312 132.281C60.8586 131.184 62.0519 129.953 63.0312 128.531C67.6513 121.823 65.7263 113.812 66.7812 106.281C67.3213 102.426 68.8898 98.8496 71.1875 95.7188C73.7073 92.2851 77.1839 89.7097 81.0625 88C83.0992 87.1022 85.2309 86.4651 87.3438 85.7812C89.246 85.1655 91.1252 84.5941 93.0938 84.2188C95.8185 83.6992 98.6017 83.5671 101.312 82.9375C106.358 81.7656 111.029 79.2781 113.719 74.6875C114.312 73.6744 114.737 72.7303 115.125 71.625C115.817 69.6559 116.15 67.5822 116.219 65.5C116.298 63.0956 116.012 60.6833 115.469 58.3438C114.603 54.6162 113.105 51.079 111.125 47.8125C109.462 45.1753 106.426 43.9315 103.531 44.4062Z" fill="#08E8FE" stroke="none"/>
</g>
<g opacity="1">
<path d="M113.938 67C109.799 66.6013 106.117 69.6118 105.719 73.75C105.612 75.1203 105.576 76.5021 105.656 77.875C105.74 79.3141 105.968 80.7477 106.031 82.1875C106.106 83.8952 105.978 85.6083 105.875 87.3125C105.717 89.9431 105.448 92.5941 104.812 95.1562C104.169 97.7535 103.139 100.461 101.219 102.406C99.6095 104.036 97.4999 104.885 95.4062 105.688C93.5032 106.417 91.6031 107.116 89.6875 107.812C83.6155 110.022 77.6567 112.54 73.4062 117.625C70.1156 121.562 68.7218 126.606 66.6875 131.219C63.9587 137.406 60.6178 143.274 55.375 147.656C49.3368 152.703 41.9846 155.847 35.4688 160.188C32.4892 162.172 29.4 164.384 27.125 167.188C25.8314 168.782 25.3528 170.862 24.7812 172.781C24.4799 173.793 24.1476 174.803 23.75 175.781C24.516 174.342 25.0962 172.88 25.7188 171.375C26.2407 170.113 26.8329 168.795 27.8125 167.812C28.9099 166.712 30.2535 165.783 31.5312 164.906C33.9377 163.256 36.527 161.881 39.1562 160.625C45.9667 157.371 53.1365 154.793 59.3438 150.406C65.1554 146.299 69.2948 140.45 72.8438 134.375C73.8612 132.633 74.8092 130.86 75.7812 129.094C77.0636 126.763 78.442 124.479 80.5312 122.781C84.596 119.478 90.1982 118.865 95.1562 117.875C99.5026 117.007 103.78 115.549 107.625 113.312C116.009 108.435 118.959 98.9242 120.156 89.875C120.421 87.8755 120.658 85.8596 120.75 83.8438C120.88 80.9718 120.356 78.075 120.719 75.2188C121.117 71.0806 118.076 67.3987 113.938 67Z" fill="#08E8FE" stroke="none"/>
</g>
<g opacity="1">
<path d="M120.594 79.125C118.671 79.2392 116.786 80.0706 115.406 81.625C112.646 84.7337 112.923 89.4897 116.031 92.25C118.346 94.118 118.952 98.0764 119.25 100.844C119.675 104.791 119.399 108.804 118.812 112.719C118.248 116.486 117.429 120.076 114.969 123.062C109.884 129.233 102.683 132.851 95.9375 136.875C90.9689 139.839 86.4651 143.468 81.625 146.625C77.6359 149.227 73.4378 151.473 69.7812 154.562C67.5216 156.472 65.3721 158.628 64 161.281C62.0693 165.015 61.421 169.251 59.375 172.938C57.7181 175.923 54.8806 178.132 52.5625 180.562C51.345 181.839 50.3106 183.166 49.2812 184.594C50.4512 183.299 51.63 182.094 52.9688 180.969C55.6507 178.715 58.7484 176.741 60.8125 173.844C63.251 170.421 64.3709 166.324 66.6875 162.844C67.7957 161.179 69.3397 159.836 70.9375 158.656C75.0716 155.604 79.8683 153.817 84.4375 151.562C88.2908 149.662 91.9438 147.461 95.7812 145.531C97.957 144.437 100.222 143.497 102.469 142.562C108.206 140.178 113.959 137.749 119.125 134.25C121.15 132.878 123.164 131.38 124.812 129.562C126.614 127.576 127.884 125.123 129.031 122.719C130.444 119.757 131.568 116.703 132.312 113.5C133.263 109.408 133.686 105.168 133.594 100.969C133.431 93.5906 131.621 86.1712 126.031 81C124.477 79.6199 122.517 79.0108 120.594 79.125Z" fill="#08E8FE" stroke="none"/>
</g>
<g opacity="1">
<path d="M94.0625 40.8125C82.5595 40.453 70.22 43.9823 62.125 52.5C55.2755 59.7072 52.4343 69.5993 50.8438 79.1875C50.5549 80.929 50.3152 82.6786 50.1562 84.4375C50.0288 85.8485 50.0187 87.2886 49.7812 88.6875C49.4374 90.7129 48.617 92.6464 47.6875 94.4688C44.1927 101.32 38.0564 106.236 31.8125 110.469C27.8714 113.14 23.3675 115.442 20.4375 119.312C18.0056 122.525 17.6897 126.867 17.0938 130.719C16.0618 137.388 16.4301 144.127 16.4688 150.844C16.4893 154.411 16.4126 157.974 16.125 161.531C15.7366 166.336 12.2614 170.656 13.4688 175.594C12.463 170.604 16.1293 166.393 16.7188 161.594C17.1566 158.029 17.3736 154.463 17.5 150.875C17.7332 144.253 17.6499 137.563 18.9375 131.031C19.1875 129.763 19.4611 128.517 19.7188 127.25C20.1846 124.959 20.7505 122.589 22.2812 120.75C25.388 117.018 30.4174 114.861 34.4688 112.312C40.6769 108.408 46.6768 103.827 50.625 97.5312C52.1612 95.0815 53.4534 92.3627 54.0938 89.5312C54.3802 88.2647 54.4964 86.9731 54.6562 85.6875C54.8129 84.4281 55.0311 83.1824 55.2812 81.9375C56.3494 76.6217 57.9093 71.3791 60.1562 66.4375C61.2064 64.128 62.3529 61.8287 63.9062 59.8125C70.6624 51.0429 83.1115 47.6312 93.75 48.1562C95.0835 48.2221 96.4183 48.3419 97.75 48.4375C99.0684 48.5321 100.454 48.5774 101.719 49C102.801 49.3616 103.758 49.978 104.688 50.625C106.41 51.801 108.761 51.3786 109.938 49.6562C111.114 47.9339 110.66 45.5823 108.938 44.4062C107.391 43.3675 105.786 42.437 104 41.875C102.131 41.2869 100.164 41.1405 98.2188 41.0312C96.8269 40.953 95.4558 40.856 94.0625 40.8125Z" fill="#08E8FE" stroke="none"/>
</g>
<g opacity="1">
<path d="M145.844 99.6562C144.884 99.7706 143.957 100.274 143.312 101.094C142.023 102.733 142.299 105.085 143.938 106.375C146.52 108.333 146.261 112.2 145.656 115.031C145.354 116.446 144.885 117.842 144.281 119.156C142.415 123.219 139.488 125.108 135.594 126.969C134.231 127.62 132.849 128.211 131.438 128.75C128.054 130.042 124.498 130.867 121 131.781C115.24 133.287 109.443 134.653 103.875 136.781C102.147 137.442 100.426 138.083 98.7812 138.938C92.506 142.199 87.496 147.24 82.2188 151.844C77.8869 155.623 73.2721 159.092 68.4688 162.25C64.1542 165.087 59.5667 167.374 55.0938 169.938C50.8263 172.383 46.6002 175.192 43.625 179.188C41.4271 182.139 40.5473 185.797 39.4688 189.25C40.7012 185.902 41.7202 182.331 44.0312 179.531C47.1308 175.777 51.4345 173.241 55.7188 171.062C60.3507 168.707 65.0703 166.628 69.5625 164C74.6233 161.039 79.5043 157.766 84.125 154.156C89.6417 149.846 94.9324 144.99 101.5 142.312C102.753 141.802 104.085 141.436 105.375 141.031C106.36 140.722 107.315 140.357 108.312 140.094C112.883 138.889 117.607 138.231 122.25 137.375C125.476 136.78 128.654 136.007 131.812 135.125C135.052 134.22 138.23 133.151 141.25 131.656C143.416 130.584 145.411 129.245 147.094 127.5C150.749 123.709 152.914 118.274 153.344 113.062C153.739 108.272 152.452 103.517 148.625 100.438C147.806 99.7925 146.803 99.5419 145.844 99.6562Z" fill="#08E8FE" stroke="none"/>
</g>
<g opacity="1">
<path d="M89.5625 52.7812C86.8496 53.0095 84.1812 53.9016 81.7812 55.3125C79.9204 56.4065 78.3036 57.6923 77.4375 59.7188C75.7644 63.6331 76.8094 68.2757 73.25 71.375C69.5052 74.6357 64.2569 75.3617 60.1562 78.0312C58.4921 79.1146 56.9902 80.4521 55.9062 82.125C54.2081 84.7459 53.1638 87.7531 51 90.0625C48.6244 92.5979 45.4953 94.2817 42.875 96.5312C39.3363 99.5693 36.6407 103.36 34.2188 107.312C36.715 103.429 39.5051 99.6993 43.0938 96.75C45.7793 94.5429 48.9291 92.9377 51.375 90.4375C53.7291 88.0311 54.7935 84.8133 56.7812 82.1562C57.8131 80.777 59.1943 79.6845 60.6562 78.7812C65.0964 76.038 70.9389 75.5463 74.75 71.75C76.2753 70.2306 77.1018 68.2659 77.5625 66.1875C77.9924 64.2481 78.0562 62.202 78.9062 60.375C79.8683 58.3072 81.9423 57.0816 83.9375 56.1562C88.0159 54.2647 92.6666 53.9523 96.7812 55.875C97.2603 56.096 97.8415 55.8852 98.0625 55.4062C98.2835 54.9272 98.0728 54.3772 97.5938 54.1562C95.0344 52.9894 92.2754 52.553 89.5625 52.7812Z" fill="#08E8FE" stroke="none"/>
</g>
<g opacity="1">
<path d="M107.156 73.5C106.629 73.4988 106.189 73.9412 106.188 74.4688C106.192 77.2794 106.083 80.0584 105.469 82.8125C105.303 83.5572 105.133 84.5288 104.688 85.2188C103.192 87.5329 98.96 88.0015 96.5625 88.5938C96.0206 88.7276 95.4779 88.8602 94.9375 89C91.8129 89.8085 88.7157 90.6789 85.75 91.9688C83.0147 93.1584 80.4573 94.6792 77.9688 96.3125C74.8333 98.3704 71.8388 100.793 71.1875 104.688C70.5645 108.413 72.3995 112.714 69.5312 115.812C67.2088 118.321 63.449 118.538 60.4375 119.75C56.9526 121.152 53.6565 123.185 50.7812 125.594C48.6534 127.376 46.7688 129.4 45.4375 131.844C47.1219 128.897 49.6047 126.664 52.3125 124.656C54.8195 122.797 57.643 121.231 60.5625 120.125C63.7014 118.936 67.511 118.791 69.9688 116.25C73.2575 112.85 71.1449 108.329 72.1562 104.281C72.9832 100.971 75.8487 98.9865 78.5938 97.2812C80.6079 96.03 82.6438 94.8417 84.8125 93.875C88.1675 92.3795 91.7373 91.3712 95.3125 90.5625C96.6234 90.266 97.9366 89.9726 99.25 89.6875C101.719 89.1516 104.692 88.4817 106.188 86.2188C107.083 84.8644 107.329 83.0552 107.594 81.5C107.99 79.1713 108.079 76.8252 108.094 74.4688C108.095 73.9412 107.684 73.5012 107.156 73.5Z" fill="#08E8FE" stroke="none"/>
</g>
<g opacity="1">
<path d="M116.594 97.6875C116.079 97.5707 115.586 97.8918 115.469 98.4062C115.352 98.9207 115.673 99.4144 116.188 99.5312C116.597 99.6214 117.516 99.6363 117.844 99.8438C118.028 99.9601 118.312 100.546 118.406 100.719C118.903 101.632 119.269 102.598 119.562 103.594C119.865 104.62 120.172 105.73 120.094 106.812C119.861 110.033 116.958 113.35 114.375 114.969C112.673 116.035 110.728 116.635 108.781 117.062C103.878 118.139 98.475 117.949 93.9688 120.406C89.9865 122.578 87.5197 126.447 84.8125 129.938C82.3361 133.131 79.7338 136.243 77 139.219C75.3046 141.064 73.4992 142.772 71.6875 144.5C70.3391 145.786 68.9161 147.212 68.4062 149.062C68.2335 149.689 68.2182 150.313 68.25 150.938C68.1727 147.453 71.1814 145.321 73.5 143.188C75.1266 141.691 76.6787 140.115 78.1875 138.5C80.9989 135.491 83.7236 132.385 86.2812 129.156C88.7949 125.983 91.3305 122.667 95.125 120.969C97.7266 119.804 100.604 119.495 103.406 119.188C107.69 118.718 112.219 118.378 115.906 115.906C118.842 113.938 121.92 110.156 121.938 106.406C121.945 104.91 121.469 103.372 121 101.969C120.64 100.89 119.88 98.9473 118.938 98.2812C118.258 97.8009 117.368 97.8702 116.594 97.6875ZM68.25 150.938C68.2882 151.688 68.4208 152.418 68.625 153.156C68.4379 152.416 68.267 151.705 68.25 150.938Z" fill="#08E8FE" stroke="none"/>
</g>
<g opacity="1">
<path d="M145.969 100.906C145.733 100.841 145.479 100.87 145.25 101C144.791 101.26 144.615 101.853 144.875 102.312C145.897 104.102 146.868 105.927 147.375 107.938C147.615 108.89 147.724 109.86 147.688 110.844C147.493 116.147 141.872 118.961 137.781 121.094C136.794 121.608 135.797 122.107 134.812 122.625C133.326 123.407 131.869 124.185 130.438 125.062C128.86 126.029 127.247 127.146 125.969 128.5C125.367 129.137 124.858 129.838 124.469 130.625C122.452 134.705 124.85 139.197 126.125 143.094C126.348 143.776 126.66 144.449 126.781 145.156C126.936 146.056 126.788 147.289 126.812 148.219C126.82 148.517 126.937 148.811 126.844 149.094C126.729 149.44 126.426 149.7 126.219 150C125.987 150.336 125.761 150.662 125.531 151C125.078 151.667 124.687 152.367 124.188 153C124.006 153.23 123.736 153.388 123.5 153.562C122.727 154.134 121.87 154.595 121 155C118.563 156.133 115.93 156.785 113.5 157.938C109.618 159.777 106.009 162.138 102.188 164.094C96.591 166.958 89.697 169.042 86.625 175.031C85.7385 176.76 85.2675 178.629 84.9375 180.531C85.2979 178.64 85.8065 176.802 86.7188 175.094C89.8699 169.192 96.7668 167.223 102.375 164.469C106.507 162.44 110.418 159.867 114.688 158.125C117.184 157.106 119.822 156.474 122.25 155.281C123.104 154.862 124.224 154.304 124.844 153.562C125.623 152.63 126.273 151.529 126.969 150.531C127.227 150.16 127.602 149.833 127.75 149.406C127.881 149.028 127.774 148.619 127.781 148.219C127.8 147.206 127.963 145.999 127.812 145C127.698 144.24 127.349 143.516 127.125 142.781C126.071 139.329 123.779 134.832 125.656 131.25C126.001 130.592 126.448 129.996 126.969 129.469C128.517 127.902 130.678 126.597 132.594 125.531C134.039 124.727 135.543 124.033 137.031 123.312C142.527 120.651 149.791 117.305 149.562 110.094C149.524 108.883 149.262 107.718 148.906 106.562C148.341 104.73 147.498 103.04 146.562 101.375C146.432 101.146 146.204 100.971 145.969 100.906Z" fill="#08E8FE" stroke="none"/>
</g>
</g>
</g>
</svg>
