<?xml version="1.0" encoding="UTF-8" standalone="no"?>
<!DOCTYPE svg PUBLIC "-//W3C//DTD SVG 1.1//EN" "http://www.w3.org/Graphics/SVG/1.1/DTD/svg11.dtd">
<!-- Created with Vectornator (http://vectornator.io/) -->
<svg height="200.0pt" stroke-miterlimit="10" style="fill-rule:nonzero;clip-rule:evenodd;stroke-linecap:round;stroke-linejoin:round;" version="1.1" viewBox="0 0 200 200" width="200.0pt" xml:space="preserve" xmlns="http://www.w3.org/2000/svg" xmlns:xlink="http://www.w3.org/1999/xlink">
<defs/>
<g id="Layer-1">
<g opacity="1">
<path d="M26.532 120.11C26.9501 114.284 23.5598 109.712 22.0299 104.102C20.9333 100.081 20.0183 96.0663 18.695 92.0963C13.5438 76.6428 10.3141 58.8252 14.0261 42.7396C15.5194 36.2686 20.0547 31.1871 24.3643 26.3986C26.6182 23.8943 28.8855 19.4609 32.0346 18.0613C34.3084 17.0507 37.2467 15.2727 39.7049 14.7264C41.3831 14.3535 43.3291 14.9166 45.0408 14.7264C52.6494 13.881 62.9544 12.2492 70.3861 14.7264C80.6788 18.1573 89.1375 26.2698 98.7328 31.0675C103.543 33.4724 109.719 33.4019 115.074 33.4019C116.47 33.4019 118.208 32.5583 119.076 31.401C119.225 31.2021 119.233 30.5582 119.409 30.734C119.907 31.2316 118.792 35.8105 118.742 36.4033C118.154 43.4609 118.868 51.1297 112.406 55.7458C104.839 61.1507 94.7067 54.0874 86.7271 57.0798C80.8573 59.2809 77.83 67.8827 76.7224 73.4208C76.2048 76.0087 76.1918 79.26 74.388 81.4246C70.9781 85.5164 66.2147 86.7393 61.0483 86.0935C58.3606 85.7575 55.1749 84.5791 52.711 86.4269C48.3428 89.7032 49.583 97.0184 47.3752 101.434C45.6649 104.855 42.4379 107.404 39.0379 109.104C37.3512 109.948 35.2992 110.193 34.0356 111.772C31.8984 114.444 33.9915 119.225 31.0341 121.443C28.7431 123.162 26.3056 123.265 26.532 120.11Z" fill="#08E8FE" fill-rule="nonzero" opacity="1" stroke="none"/>
<g opacity="1">
<path d="M52.2188 66.625C50.8645 66.793 49.5613 67.4948 48.6562 68.6562C44.0009 74.845 45.1548 84.2704 47.8125 91.0625C48.5237 92.88 49.405 94.6417 50.5625 96.2188C51.1791 97.0588 51.89 97.8589 52.6875 98.5312C57.4742 102.567 63.626 101.044 69.3125 101.031C74.9994 101.019 81.0512 102.695 85.1562 106.812C89.2711 110.94 91.7748 116.505 94.1875 121.719C95.4118 124.365 96.6355 127.001 97.9688 129.594C98.4193 130.47 98.8175 131.367 99.3125 132.219C100.049 133.486 100.944 134.681 101.75 135.906C103.658 138.805 105.977 141.588 108.781 143.656C110.308 144.782 112.083 145.73 114 145.938C116.218 146.177 118.556 145.345 120.656 144.781C118.578 145.138 116.217 145.773 114.094 145.344C111.925 144.905 110.074 143.413 108.562 141.875C106.151 139.422 104.449 136.571 102.844 133.562C102.398 132.727 101.898 131.921 101.5 131.062C101.105 130.209 100.819 129.311 100.469 128.438C97.9377 122.122 96.1975 115.487 93.0938 109.406C91.5043 106.292 89.6521 103.257 87.0938 100.844C82.4557 96.4683 76.1695 94.12 69.9375 93.2188C68.0616 92.9475 66.1746 92.8684 64.2812 92.875C62.7085 92.8805 60.6807 92.9834 59.3438 91.9375C58.1834 91.0298 57.523 88.976 57.0938 87.6562C56.129 84.6901 55.6303 81.4279 56 78.3125C56.1296 77.2203 56.3362 76.076 57.0625 75.2188C58.8727 72.8959 58.4791 69.5289 56.1562 67.7188C54.9948 66.8137 53.573 66.457 52.2188 66.625Z" fill="#08E8FE" stroke="none"/>
</g>
<g opacity="1">
<path d="M60.3125 70.3125C58.2787 70.7384 56.5815 72.3327 56.1562 74.5C55.5893 77.3898 57.4852 80.2143 60.375 80.7812C63.5957 81.3546 66.7531 81.0763 70 80.9062C71.6165 80.8216 73.4861 80.6706 75 81.4062C76.689 82.227 77.9081 83.8234 78.9688 85.3125C80.5283 87.5022 81.6737 89.8551 82.8125 92.2812C83.2897 93.2979 83.8624 94.3147 84.1562 95.4062C84.601 97.0582 84.5499 98.8435 84.75 100.531C85.1177 103.633 85.5097 106.719 85.9375 109.812C86.9052 116.812 88.8955 123.581 91.7812 130.031C93.2388 133.289 95.3344 136.242 97.6562 138.938C100.16 141.844 103.004 144.517 106.219 146.625C108.383 148.044 110.926 149.437 113.562 149.625C116.582 149.84 119.535 148.571 122.219 147.344C119.528 148.273 116.57 149.268 113.688 148.781C110.623 148.263 107.609 145.843 105.406 143.781C101.443 140.072 98.0072 135.429 95.9062 130.406C95.182 128.675 94.6825 126.87 94.1875 125.062C93.2861 121.772 92.5483 118.397 92.1875 115C91.867 111.983 91.8146 108.937 91.8125 105.906C91.8109 103.658 91.7802 101.403 91.875 99.1562C91.9548 97.265 92.1411 95.384 91.8438 93.5C91.3644 90.4629 89.9522 87.6813 88.8438 84.8438C86.9776 80.0667 84.3445 75.25 79.7188 72.6562C76.6532 70.9373 73.1822 70.5409 69.7188 70.5625C67.2836 70.5777 64.8349 70.8496 62.4375 70.3125C61.7151 70.1708 60.9904 70.1705 60.3125 70.3125Z" fill="#08E8FE" stroke="none"/>
</g>
<g opacity="1">
<path d="M81.125 44.8125C79.6764 44.859 78.2352 45.0973 76.8438 45.5C74.6056 46.1478 72.5691 47.2044 70.625 48.4688C68.1791 50.1088 67.5474 53.4291 69.1875 55.875C70.8276 58.3209 74.1166 58.9838 76.5625 57.3438C77.8372 56.4546 79.2024 55.614 80.75 55.3125C85.3788 54.4106 89.4843 58.9474 92 62.1875C92.5134 62.8488 93.2768 63.906 93.75 64.5938C94.3181 65.4193 94.8682 66.2483 95.4062 67.0938C96.5015 68.8147 97.6565 70.5916 98.4062 72.5C100.838 78.6898 99.1534 85.2921 97.8438 91.5312C97.1494 94.8392 96.5728 98.1463 96.4375 101.531C96.026 111.826 99.167 121.917 103.531 131.125C105.001 134.225 106.58 137.275 108.344 140.219C109.373 141.936 110.476 143.633 111.656 145.25C112.83 146.857 114.062 148.407 115.406 149.875C116.265 150.813 117.287 151.854 118.219 152.719C121.937 156.169 127.155 160.395 132.281 157.219C128.033 159.43 124.302 156.932 121.156 153.969C114.544 147.74 110.272 139.675 106.969 131.312C104.195 124.289 102.071 116.893 101.719 109.312C101.543 105.538 101.861 101.744 102.719 98.0625C104.378 90.9435 107.581 84.286 107.625 76.8438C107.655 71.8154 105.571 67.0856 103.406 62.6562C99.2387 54.1274 91.6697 44.4741 81.125 44.8125Z" fill="#08E8FE" stroke="none"/>
</g>
<g opacity="1">
<path d="M40.4688 76.875C39.7274 77.0254 39.0447 77.4446 38.5938 78.125C35.6969 82.5736 34.5425 86.6583 34.8438 92.0312C34.9524 93.9688 35.1901 95.9124 35.375 97.8438C35.5758 99.9406 35.794 102.034 36.25 104.094C36.6147 105.741 37.1351 107.312 37.8438 108.844C38.3406 109.918 39.009 110.917 39.7812 111.812C40.3264 112.445 40.9183 113.038 41.5938 113.531C45.2524 116.201 49.9338 115.365 54.125 116.031C61.4975 117.203 69.7352 118.759 74.9062 124.656C77.8346 127.996 79.6447 132.139 81.2812 136.219C82.7689 139.927 84.0286 143.79 85.9375 147.312C87.5009 150.197 89.6031 152.773 91.875 155.125C93.9948 157.319 96.2061 159.487 98.6562 161.312C103.824 165.163 110.68 167.699 117 165.219C118.542 164.613 119.916 163.763 121.219 162.75C119.883 163.7 118.463 164.496 116.906 165.031C110.262 167.318 103.388 164.115 98.4062 159.75C96.7865 158.331 95.3037 156.737 93.8438 155.156C91.1034 152.19 88.6265 148.986 87.0312 145.25C83.6831 137.408 82.314 128.47 76.5625 121.844C71.1695 115.631 62.6697 113.431 54.9688 111.688C52.8845 111.216 50.7426 111.158 48.625 110.938C46.9064 110.759 45.2068 110.342 44.0312 109C42.5861 107.35 41.9208 105.108 41.5312 103C40.9314 99.7545 40.808 96.3828 40.5938 93.0938C40.4918 91.5278 40.4364 89.9371 40.625 88.375C40.9395 85.7702 42.0776 83.526 43.5312 81.375C44.4331 80.0143 44.0482 78.1831 42.6875 77.2812C42.0071 76.8303 41.2101 76.7246 40.4688 76.875Z" fill="#08E8FE" stroke="none"/>
</g>
<g opacity="1">
<path d="M65.5312 52.5938C63.9002 52.527 62.5355 53.8064 62.4688 55.4375C62.402 57.0686 63.6502 58.4332 65.2812 58.5C70.8978 58.6905 76.5492 58.5398 82.0312 59.9688C84.2452 60.5458 86.3092 61.7579 88.1875 63.0312C90.0147 64.2701 91.6938 65.6836 93.1562 67.3438C97.0784 71.796 98.8739 77.2927 100.062 83C101.453 89.6753 101.932 96.5 103.25 103.188C103.833 106.144 104.587 109.086 105.656 111.906C109.817 122.881 116.884 132.743 126.344 139.75C132.822 144.549 140.267 147.859 147.156 152C152.05 154.942 156.678 159.196 162.188 160.938C159.67 160.015 157.35 158.562 155.156 156.969C152.301 154.896 149.582 152.679 146.625 150.75C140.241 146.584 133.307 143.23 127.344 138.438C118.526 131.352 112.089 121.595 108.562 110.875C104.43 98.312 106.647 84.5792 101.844 72.1562C100.699 69.1968 99.2006 66.3998 97.1875 63.9375C95.3169 61.6494 93.0645 59.7189 90.625 58.0625C88.4446 56.582 86.0787 55.256 83.5312 54.5312C77.6484 52.8577 71.5878 52.8851 65.5312 52.5938ZM162.188 160.938C163.238 161.322 164.298 161.633 165.438 161.781C164.291 161.675 163.256 161.275 162.188 160.938Z" fill="#08E8FE" stroke="none"/>
</g>
<g opacity="1">
<path d="M41.3438 88.3438C39.7223 88.533 38.5607 90.0035 38.75 91.625C39.1381 94.759 40.098 97.68 41.2188 100.625C42.0516 102.813 42.9314 104.924 44.3438 106.812C49.7722 114.071 58.8712 115.311 67.25 116.094C72.3216 116.568 77.3568 117.255 82.25 118.719C85.7115 119.754 89.0817 121.198 91.9688 123.406C96.4284 126.817 98.8624 131.993 100.625 137.188C103.16 144.659 104.516 152.487 107.688 159.75C111.151 167.684 116.292 173.913 123.969 178.062C126.376 179.363 128.905 180.387 131.594 180.938C136.649 181.973 141.773 181.529 146.844 180.875C150.121 180.452 153.441 180.012 156.562 178.875C158.193 178.281 159.719 177.521 161.219 176.656C159.695 177.465 158.144 178.184 156.5 178.719C153.005 179.856 149.296 180.15 145.656 180.469C141.037 180.873 136.355 181.003 131.812 179.906C128.95 179.215 126.303 177.959 123.812 176.406C118.857 173.316 114.914 169.134 112.125 164C109.34 158.874 107.724 153.206 106.375 147.562C103.951 137.426 102.25 126.194 93.375 119.469C86.7443 114.444 78.4794 112.697 70.4375 111.406C63.226 110.249 53.6461 110.002 48.9375 103.438C47.564 101.523 46.8524 99.237 46.0938 97.0312C45.4079 95.0374 44.8525 93.0357 44.625 90.9375C44.4357 89.316 42.9652 88.1545 41.3438 88.3438Z" fill="#08E8FE" stroke="none"/>
</g>
<g opacity="1">
<path d="M50.6875 65.375C49.9203 65.1353 49.1147 65.5453 48.875 66.3125C47.8238 69.7175 47.2399 73.2067 47.25 76.7812C47.2595 80.1178 47.7501 83.4152 48.1562 86.7188C49.2362 95.5035 50.3252 105.799 57.875 111.625C59.1006 112.571 60.4625 113.338 61.875 113.969C67.758 116.595 74.3316 116.697 80.5312 118.125C84.8842 119.128 89.1071 120.883 92 124.406C95.0118 128.075 96.4819 132.928 97.75 137.406C98.6277 140.506 99.3413 143.643 100.062 146.781C100.628 149.243 101.157 151.724 101.844 154.156C104.153 162.329 107.691 169.426 114.812 174.344C117.634 176.292 120.702 177.591 124.156 177.781C126.049 177.885 127.912 177.67 129.75 177.219C133.071 176.403 136.265 175.304 139.312 173.75C135.942 175.394 132.329 176.607 128.625 177.25C126.435 177.63 124.149 177.634 121.969 177.188C119.072 176.595 116.571 175.16 114.25 173.375C110.028 170.128 106.948 165.749 104.938 160.844C102.819 155.674 101.794 150.132 100.656 144.688C99.9897 141.497 99.3024 138.322 98.4062 135.188C97.2426 131.117 95.8108 126.846 93.1562 123.469C85.0017 113.095 69.7305 117.311 59.7812 110.156C56.3958 107.722 54.4069 103.882 53.2188 99.9688C51.506 94.3282 51.0691 88.3047 50.4375 82.4688C49.8653 77.1811 50.0499 72.2651 51.6562 67.1875C51.896 66.4203 51.4547 65.6147 50.6875 65.375Z" fill="#08E8FE" stroke="none"/>
</g>
<g opacity="1">
<path d="M73.4062 61.1875C72.6361 60.9575 71.8238 61.3861 71.5938 62.1562C71.3637 62.9264 71.7924 63.7387 72.5625 63.9688C75.1967 64.7448 77.7454 65.7756 80.125 67.1562C84.2084 69.5255 87.9519 72.9006 89.7812 77.3438C91.2156 80.8274 90.9423 84.5681 91.1875 88.25C91.4671 92.449 91.9234 96.6603 92.375 100.844C93.4608 110.901 96.0756 121.14 101.562 129.75C104.81 134.845 109.386 139.362 114.5 142.562C120.461 146.293 127.714 148.588 131.594 154.875C135.804 161.696 136.866 169.825 139.469 177.281C140.885 181.338 143.115 186.984 148.156 187.281C149.798 187.378 151.454 186.737 153.031 186.375C151.244 186.751 149.44 187.384 147.594 187.094C142.42 186.28 140.4 179.436 139.156 175.188C137.049 167.991 135.977 160.138 131.781 153.75C127.835 147.742 120.926 145.332 115.156 141.562C110.154 138.294 105.504 133.502 102.531 128.281C99.4694 122.904 97.3744 117.02 96.125 110.969C95.0362 105.695 94.555 100.301 94.1562 94.9375C93.9501 92.1642 93.7538 89.3743 93.6875 86.5938C93.6037 83.0787 93.6403 79.6649 92.3125 76.3438C89.1645 68.47 81.2006 63.5459 73.4062 61.1875Z" fill="#08E8FE" stroke="none"/>
</g>
<g opacity="1">
<path d="M58.2188 71.9062C57.4505 72.1425 57.0137 72.9505 57.25 73.7188C58.8252 78.7749 59.1587 84.0316 60.0938 89.2188C60.6623 92.3726 61.9879 95.342 62.9688 98.375C64.3877 102.763 65.6881 107.146 67.9688 111.188C68.5364 112.193 69.1381 113.171 69.6875 114.188C70.5635 115.808 71.4478 117.478 72.8125 118.75C74.2466 120.087 76.2075 120.94 77.9688 121.75C81.8552 123.537 86.0102 124.83 90.2188 125.594C94.5448 126.379 98.9308 126.552 103.312 126.25C110.738 125.738 118.05 124.437 124.812 128.469C131.435 132.417 136.497 138.408 142.094 143.594C146.356 147.542 151.281 150.834 155.031 155.312C158.417 159.356 161.017 163.975 164.219 168.156C165.829 170.259 167.586 172.144 169.531 173.938C167.621 172.113 165.914 170.19 164.344 168.062C161.21 163.818 158.664 159.141 155.344 155.031C151.662 150.473 146.798 147.098 142.594 143.062C137.03 137.723 132.055 131.584 125.438 127.469C123.092 126.01 120.503 125.06 117.781 124.594C112.209 123.639 106.565 124.63 100.969 124.719C94.3998 124.823 87.7794 123.525 81.7188 121C79.825 120.211 78.0039 119.325 76.2188 118.312C75.8498 118.103 75.2187 117.752 74.8438 117.469C73.2139 116.239 72.3714 114.2 71.4688 112.438C70.3213 110.198 69.0932 108.046 68.1875 105.688C66.9721 102.523 66.1407 99.2096 65.0625 96C64.3331 93.8288 63.4806 91.7155 63 89.4688C62.3965 86.6473 62.1495 83.7295 61.75 80.875C61.369 78.1525 60.8303 75.5063 60.0312 72.875C59.795 72.1067 58.987 71.67 58.2188 71.9062Z" fill="#08E8FE" stroke="none"/>
</g>
<g opacity="1">
<path d="M105.25 50.375C103.267 50.5828 102.169 51.9564 100.594 52.9375C99.9141 53.3666 99.6959 54.2579 100.125 54.9375C100.554 55.6171 101.445 55.8354 102.125 55.4062C103.003 54.8459 104.106 53.6048 105.062 53.3125C106.497 52.8741 108.63 53.9196 109.656 54.7812C112.478 57.1502 113.812 61.2383 114.219 64.7812C114.747 69.3869 113.967 74.367 113.188 78.9062C111.525 88.5836 108.687 98.2501 110.125 108.156C110.48 110.606 111.041 113.018 112.062 115.281C116.014 124.041 125.111 127.28 133 131.5C135.803 133 138.44 134.691 140.844 136.781C143.515 139.104 145.513 142.005 146.5 145.406C147.852 150.068 147.911 155.652 150.75 159.719C151.803 161.227 153.228 162.28 154.844 163.125C159.369 165.492 164.231 164.987 169.156 164.531C166.481 164.729 163.808 164.958 161.125 164.75C159.663 164.636 158.209 164.314 156.844 163.781C155.183 163.133 153.479 162.214 152.219 160.938C149.701 158.386 148.971 154.65 148.344 151.25C147.795 148.273 147.386 145.2 146.156 142.406C145.622 141.194 144.9 140.079 144.094 139.031C139.684 133.297 132.892 130.28 126.688 126.938C122.947 124.923 119.192 122.641 116.438 119.344C111.913 113.928 111.163 106.415 111.781 99.625C112.812 88.3003 117.149 77.4898 117 66.0312C116.94 61.4076 115.099 55.6906 111.5 52.625C109.867 51.2343 107.465 50.1429 105.25 50.375Z" fill="#08E8FE" stroke="none"/>
</g>
</g>
</g>
</svg>
