<?xml version="1.0" encoding="UTF-8" standalone="no"?>
<!DOCTYPE svg PUBLIC "-//W3C//DTD SVG 1.1//EN" "http://www.w3.org/Graphics/SVG/1.1/DTD/svg11.dtd">
<!-- Created with Vectornator (http://vectornator.io/) -->
<svg height="140.0pt" stroke-miterlimit="10" style="fill-rule:nonzero;clip-rule:evenodd;stroke-linecap:round;stroke-linejoin:round;" version="1.1" viewBox="0 0 100 140" width="100.0pt" xml:space="preserve" xmlns="http://www.w3.org/2000/svg" xmlns:xlink="http://www.w3.org/1999/xlink">
<defs/>
<g id="Layer-1">
<g opacity="1">
<path d="M11.9117 39.4107C12.9374 38.4927 13.7561 38.2977 15.4501 38.2977C17.8723 38.2977 17.8272 41.8219 18.1814 42.9211C18.3146 43.3343 19.6278 43.8479 20.1679 44.0341C22.6509 44.8903 25.252 43.027 27.6171 43.4348C29.0784 43.6867 28.959 45.7244 30.7209 46.0889C34.2707 46.8233 37.2449 44.9124 40.0325 45.2327C42.0886 45.4691 42.3635 47.5412 44.6261 47.8013C47.2919 48.1077 49.3984 45.3489 52.3236 45.1471C55.6758 44.916 58.9241 47.4249 62.5042 47.1163C64.9861 46.9024 66.5023 45.3126 68.7119 44.8047C69.9919 44.5104 72.8141 46.0021 75.0437 45.4896C77.5416 44.9154 77.3483 42.8729 79.0166 41.7224C80.0535 41.0074 81.6674 40.9889 82.8654 40.4382C83.9872 39.9224 84.6411 38.0746 85.2243 37.2703C85.6595 36.6701 87.8438 36.574 88.5764 35.9004C88.5868 35.8909 88.5889 32.4416 88.4523 31.8764C88.198 30.8241 86.8226 29.9561 86.0934 29.051C85.0572 27.7648 84.6755 26.2268 83.6103 24.9414C81.5899 22.5031 78.5133 20.2931 75.4162 18.6913C71.891 16.868 71.069 13.3534 67.8428 11.4994C59.5692 6.74474 45.5381 5.26106 35.4388 8.2459C27.0059 10.7382 23.4172 16.5214 19.5471 21.8591C17.7794 24.2972 16.1928 26.1897 15.3259 28.8798C14.4862 31.4855 13.7625 33.9439 13.2153 36.5854C13.0548 37.36 10.768 40.4344 11.9117 39.4107Z" fill="#08E8FE" fill-rule="nonzero" opacity="1" stroke="none"/>
<g opacity="1">
<path d="M42.625 38.125C41.1972 38.6479 40.4458 40.2285 40.9688 41.6562C41.376 42.7244 41.7172 43.7834 41.75 44.9375C41.8675 49.0664 37.9729 52.0353 35.0312 54.2812C29.4535 58.5399 22.339 62.918 22.2188 70.75C22.1959 72.2385 22.3779 73.7221 22.7812 75.1562C25.7226 85.6131 39.2055 87.3362 43.1875 97.0625C44.0697 99.2173 43.5839 102.028 43.375 104.281C42.9627 108.729 42.3719 113.155 42.2812 117.625C42.2732 118.022 42.3022 118.632 42.3125 119.031C42.3573 120.768 42.414 124.983 45.125 124.438C42.4543 124.827 42.6397 120.727 42.6875 119.031C42.6986 118.638 42.721 118.046 42.75 117.656C43.0806 113.211 43.8818 108.811 44.5312 104.406C44.9081 101.85 45.5498 99.0148 44.6875 96.5C42.53 90.208 36.6844 86.665 31.875 82.5625C28.202 79.4293 25.4767 76.0155 25.9375 70.9375C26.4 65.8418 31.2733 62.8145 35.125 60.25C40.5781 56.6193 47.2359 52.2422 47.1875 44.875C47.1758 43.1001 46.7441 41.4108 46.1562 39.75C45.6333 38.3222 44.0528 37.6021 42.625 38.125Z" fill="#08E8FE" stroke="none"/>
</g>
<g opacity="1">
<path d="M49.375 38.3438C47.8602 38.2125 46.5063 39.3289 46.375 40.8438C46.0842 44.7699 47.8323 48.4209 47.8438 52.3125C47.8487 53.9846 47.6501 55.6797 47.5 57.3438C47.3123 59.4236 47.1198 61.5371 46.75 63.5938C45.9288 68.1616 44.8776 72.6674 44.9688 77.3438C45.0609 82.0686 46.2023 86.7039 47.625 91.1875C49.034 95.628 50.7569 99.989 52.5625 104.281C53.447 106.384 54.5316 108.46 55.25 110.625C56.0808 113.128 56.4692 115.746 57.4062 118.219C57.9756 119.721 58.8183 121.582 60.6562 121.594C58.4265 121.434 57.802 118.606 57.375 116.844C56.8569 114.705 56.6187 112.505 56.0625 110.375C55.4806 108.147 54.5025 105.989 53.75 103.812C52.2475 99.4662 50.859 95.0663 49.7812 90.5938C48.7447 86.2923 48.0109 81.8459 48.2812 77.4062C48.5144 73.578 49.7283 70.005 50.625 66.3125C51.6158 62.2323 52.5037 58.159 52.875 53.9688C53.0518 51.9732 53.0061 50.0768 52.6875 48.0938C52.3271 45.8504 51.6369 43.6371 51.875 41.3438C52.0063 39.8289 50.8898 38.475 49.375 38.3438Z" fill="#08E8FE" stroke="none"/>
</g>
<g opacity="1">
<path d="M53.875 42.0312C53.1885 41.8728 52.4572 41.9721 51.8125 42.375C50.5231 43.1808 50.1317 44.8981 50.9375 46.1875C52.8187 49.0858 54.2348 52.2852 55.625 55.4375C56.8312 58.1725 58.0274 60.8834 59.0625 63.6875C59.8173 65.7324 60.6423 67.7476 61.3438 69.8125C63.4315 75.9578 65.0629 82.3629 65.625 88.8438C66.176 95.1967 65.7718 103.024 60.125 107.094C66.7124 103.127 67.4588 94.146 67.2812 87.2188C67.1376 81.6146 66.2641 76.0424 65.125 70.5625C64.4408 67.2709 63.6778 63.9938 62.6875 60.7812C60.8341 54.7688 58.8688 48.6711 55.5938 43.25C55.1908 42.6053 54.5615 42.1897 53.875 42.0312Z" fill="#08E8FE" stroke="none"/>
</g>
<g opacity="1">
<path d="M17.9375 37.9375C17.6987 37.8594 17.4531 38.0112 17.375 38.25C16.2932 41.5775 16.5796 44.5186 19.375 46.9688C20.6039 48.0458 22.0613 48.8364 23.5312 49.5312C27.9105 51.6012 32.7067 52.8044 36.75 55.5312C37.2245 55.8513 37.6952 56.1609 38.1562 56.5C40.5018 58.2249 41.7826 61.1419 41.7812 64C41.7791 68.5554 39.5074 72.9692 37.3125 76.8125C35.9994 79.1119 34.5652 81.3414 33.125 83.5625C31.9253 85.4127 30.7118 87.2312 29.5312 89.0938C24.0909 97.6768 17.3326 108.969 23.0625 119.031C24.0164 120.706 25.2275 122.238 26.5938 123.594C29.1084 126.089 32.0837 128.017 35.1562 129.75C32.1011 127.995 29.1482 126.043 26.6562 123.531C25.3075 122.172 24.0923 120.643 23.1562 118.969C18.1113 109.946 23.172 100.002 28.0625 92.0938C28.9315 90.6886 29.8419 89.3175 30.75 87.9375C31.957 86.1032 33.2037 84.2748 34.4062 82.4375C35.8404 80.2464 37.2286 78.0406 38.5 75.75C40.4737 72.1942 42.3845 68.1616 42.4375 64C42.477 60.898 41.105 57.8015 38.5938 55.9062C38.1288 55.5554 37.6354 55.2375 37.1562 54.9062C33.3457 52.2721 28.8795 51.0131 24.6875 49.125C21.4423 47.6633 17.5561 45.4686 17.6562 41.4062C17.6808 40.4091 17.9401 39.4736 18.25 38.5312C18.3281 38.2924 18.1763 38.0156 17.9375 37.9375Z" fill="#08E8FE" stroke="none"/>
</g>
<g opacity="1">
<path d="M47.9062 39.375C46.0068 39.3374 44.1671 39.6252 42.3125 40C42.0663 40.0502 41.8873 40.285 41.9375 40.5312C41.9877 40.7775 42.2538 40.9564 42.5 40.9062C44.5838 40.4778 46.6778 40.1151 48.8125 40.2812C49.8634 40.363 50.8937 40.5762 51.875 40.9688C57.1969 43.0977 57.5895 49.9328 57.4062 54.8125C57.378 55.5655 57.3108 56.2481 57.25 57C57.1565 58.156 57.026 59.2877 56.875 60.4375C56.7142 61.6622 56.5424 62.8746 56.3438 64.0938C54.6119 74.72 51.7644 85.1401 49.7812 95.7188C48.7227 101.366 47.8515 107.118 47.7812 112.875C47.7292 117.142 48.1691 121.861 50.0625 125.812C47.8786 121.147 47.7422 115.294 48.0625 110.406C49.1475 93.8484 54.9616 78.0837 57.4375 61.75C57.674 60.1897 57.8581 58.6344 58 57.0625C58.5478 50.9964 58.5703 42.1317 51.4375 39.9062C50.295 39.5498 49.1003 39.3986 47.9062 39.375ZM50.0625 125.812C50.8011 127.354 51.7039 128.811 52.9688 130.031C53.879 130.909 54.8769 131.591 55.9688 132.219C54.8836 131.583 53.9017 130.885 53 130C51.7564 128.78 50.7905 127.368 50.0625 125.812Z" fill="#08E8FE" stroke="none"/>
</g>
<g opacity="1">
<path d="M64.75 33.7188C63.973 33.6536 63.2042 33.754 62.5 34.0938C62.2741 34.2038 62.2025 34.4616 62.3125 34.6875C62.4225 34.9134 62.6803 35.0163 62.9062 34.9062C65.073 33.839 68.1339 35.7654 69.8438 36.875C70.4217 37.2501 71.0063 37.6559 71.5625 38.0625C73.7168 39.6374 75.735 41.4055 77.7188 43.1875C78.8757 44.2268 80.1486 45.1881 81.125 46.4062C82.851 48.5595 83.4427 51.2851 83.375 54C83.2672 58.3197 81.8334 62.6132 80.375 66.625C78.7527 71.0879 76.8677 75.4588 75.125 79.875C69.5637 93.9676 64.7432 109.551 70.5 124.406C71.8776 127.961 73.7796 131.216 76.0312 134.281C73.8062 131.202 71.9106 127.936 70.5625 124.375C64.9423 109.527 69.8883 94.0219 75.5625 80.0312C77.806 74.4994 80.3136 69.0481 82.1875 63.375C83.2539 60.1465 84.1445 56.7402 84.125 53.3125C84.1098 50.645 83.4245 48.0252 81.75 45.9062C80.5797 44.4253 79.0245 43.2247 77.625 41.9688C75.5747 40.1288 73.4792 38.2985 71.2188 36.7188C69.5838 35.5761 67.0809 33.9143 64.75 33.7188Z" fill="#08E8FE" stroke="none"/>
</g>
<g opacity="1">
<path d="M37.8438 41.5625C37.6006 41.4991 37.3446 41.6318 37.2812 41.875C37.2179 42.1182 37.3818 42.3741 37.625 42.4375C39.0112 42.7958 40.3502 43.249 41.5625 44.0312C47.1587 47.6422 46.7368 55.5488 45.9375 61.3125C45.7823 62.4317 45.5877 63.5466 45.375 64.6562C44.5965 68.7168 43.5418 72.7365 42.4375 76.7188C41.6169 79.6777 40.7514 82.6106 39.9062 85.5625C39.1876 88.0728 38.4892 90.5949 37.8438 93.125C37.3265 95.1526 36.8141 97.1727 36.375 99.2188C36.0399 100.78 35.6882 102.328 35.4375 103.906C34.3638 110.663 33.7395 120.007 40.4375 124.188C41.4727 124.834 42.6133 125.309 43.7812 125.656C45.9862 126.311 48.2753 126.469 50.5625 126.5C48.2791 126.448 46.0081 126.299 43.8125 125.625C42.6546 125.27 41.5233 124.776 40.5 124.125C34.22 120.126 34.5857 111.544 35.5625 105.094C35.7355 103.951 35.9503 102.788 36.1875 101.656C36.5198 100.071 36.8636 98.4792 37.25 96.9062C37.7582 94.8373 38.3137 92.7649 38.9062 90.7188C39.6374 88.1938 40.3695 85.6741 41.125 83.1562C42.0029 80.2305 42.893 77.316 43.7188 74.375C44.8162 70.4663 45.8469 66.5359 46.5312 62.5312C47.6198 56.1614 48.2665 47.3347 42.0312 43.2812C40.7403 42.442 39.3222 41.9509 37.8438 41.5625Z" fill="#08E8FE" stroke="none"/>
</g>
<g opacity="1">
<path d="M64.6562 44.2812C64.414 44.3479 64.2771 44.6014 64.3438 44.8438C64.4104 45.086 64.664 45.2229 64.9062 45.1562C67.3178 44.4811 67.8259 47.2995 68.0938 49.0938C68.8281 54.0136 68.2772 59.351 67.875 64.2812C66.5613 80.3841 63.7096 96.3831 63.4375 112.562C63.3815 115.893 63.5443 119.336 64.1562 122.656C63.5439 118.975 63.5303 115.181 63.6562 111.469C64.2052 95.2947 67.2661 79.3125 68.75 63.2188C69.0245 60.242 69.2267 57.2716 69.25 54.2812C69.2654 52.304 69.2279 50.2945 68.875 48.3438C68.4574 46.0353 67.4865 43.5148 64.6562 44.2812ZM64.1562 122.656C64.2063 122.957 64.1908 123.263 64.25 123.562C64.2749 123.688 64.3481 123.811 64.375 123.938C64.2754 123.517 64.2348 123.082 64.1562 122.656ZM64.375 123.938C64.4549 124.275 64.4364 124.636 64.5312 124.969C64.6648 125.437 64.9123 125.862 65.0938 126.312C64.7941 125.544 64.5439 124.733 64.375 123.938ZM65.0938 126.312C65.2062 126.601 65.2982 126.883 65.4375 127.156C65.2988 126.889 65.2072 126.594 65.0938 126.312ZM65.4375 127.156C65.5408 127.355 65.6616 127.531 65.7812 127.719C65.6635 127.531 65.5389 127.355 65.4375 127.156ZM65.7812 127.719C66.2043 128.394 66.6882 129.038 67.375 129.5C66.68 129.043 66.2082 128.389 65.7812 127.719Z" fill="#08E8FE" stroke="none"/>
</g>
<g opacity="1">
<path d="M71.4062 41.5938C70.9746 41.6582 70.5615 41.9028 70.2812 42.2812C69.7208 43.0382 69.868 44.0958 70.625 44.6562C71.5596 45.3359 72.4395 46.0859 73.1562 47C76.9621 51.8535 75.5306 59.2829 74.0938 64.75C73.7496 66.0596 73.3251 67.3381 72.9062 68.625C70.7021 75.3979 68.0349 82.0034 65.5 88.6562C64.2897 91.8329 63.1744 95.0167 62.125 98.25C61.7828 99.3044 61.3775 100.366 61.0938 101.438C60.6614 103.07 60.4277 104.782 60.0938 106.438C59.8931 107.432 59.6263 108.435 59.4688 109.438C58.6198 114.837 59.4158 120.936 62.9375 125.281C63.889 126.455 65.0185 127.403 66.2188 128.312C65.059 127.364 63.9653 126.359 63.0625 125.156C59.7786 120.783 59.2222 114.812 60.25 109.562C60.5075 108.247 60.8722 106.928 61.1875 105.625C61.5005 104.332 61.764 102.99 62.1562 101.719C62.6937 99.977 63.4304 98.2727 64.0625 96.5625C67.8213 86.3923 73.0766 76.8215 76.4375 66.5C78.6578 59.6812 80.5596 51.1698 75.8125 44.9375C74.9187 43.7641 73.8299 42.8202 72.6562 41.9375C72.2778 41.6573 71.8379 41.5293 71.4062 41.5938Z" fill="#08E8FE" stroke="none"/>
</g>
<g opacity="1">
<path d="M50.5625 14.9375C50.1585 15.1027 49.8072 15.4095 49.625 15.8438C49.2607 16.7123 49.6627 17.7294 50.5312 18.0938C53.0957 19.1517 55.5656 20.3621 57.75 22.0938C59.0052 23.0888 60.1403 24.2429 61.0938 25.5312C66.2683 32.5235 64.7986 41.9613 63 49.8438C62.6306 51.4629 62.1918 53.0554 61.75 54.6562C58.4182 66.7292 53.6852 78.506 51.9375 90.9688C50.7125 99.7041 51.1836 108.854 55.6875 116.656C57.0324 118.986 58.6687 121.07 60.5 123.031C58.7329 121.025 57.147 118.89 55.875 116.531C51.6618 108.718 51.4594 99.6952 52.9375 91.125C55.2153 77.9185 60.8624 65.6483 64.6875 52.875C67.4809 43.5471 69.8472 32.1847 63.7188 23.625C62.6176 22.087 61.3103 20.6934 59.8438 19.5C57.438 17.5424 54.6839 16.1478 51.8438 14.9375C51.4095 14.7553 50.9665 14.7723 50.5625 14.9375Z" fill="#08E8FE" stroke="none"/>
</g>
<g opacity="1">
<path d="M28.7812 36.5312C25.7358 36.4089 24.2166 39.7474 23.375 42.1875C22.7516 43.9948 22.2893 45.8617 21.8438 47.7188C20.8821 51.727 19.9668 55.6749 22.3125 59.4688C24.0669 62.3063 27.1087 63.9227 30.0312 65.3125C36.2315 68.261 43.5037 70.1553 45.375 77.6562C46.4972 82.1547 45.3075 87.0561 44.0938 91.4062C42.0067 98.8863 38.8857 106.104 37.4062 113.75C36.5348 118.253 36.1789 123.342 38.5625 127.469C39.2713 128.696 40.1879 129.697 41.2188 130.656C40.2237 129.671 39.3541 128.648 38.6875 127.406C36.0652 122.521 37.1759 116.541 38.5625 111.469C40.6163 103.956 44.0058 96.8771 46.0938 89.375C47.1752 85.4892 48.03 81.2672 47.1875 77.25C45.672 70.0236 39.5903 66.8784 33.4375 63.9375C30.5035 62.5351 27.1312 61.1953 25.2188 58.4062C23.2241 55.4975 24.0523 52.0804 24.875 48.9375C25.262 47.4592 25.6217 45.9858 26.0938 44.5312C26.5013 43.2756 26.9693 41.9639 27.6875 40.8438C27.8905 40.5271 28.2785 39.9052 28.5938 39.9375C29.5342 39.989 30.3235 39.2842 30.375 38.3438C30.4265 37.4033 29.7217 36.5828 28.7812 36.5312Z" fill="#08E8FE" stroke="none"/>
</g>
</g>
</g>
</svg>
