<?xml version="1.0" encoding="UTF-8" standalone="no"?>
<!DOCTYPE svg PUBLIC "-//W3C//DTD SVG 1.1//EN" "http://www.w3.org/Graphics/SVG/1.1/DTD/svg11.dtd">
<!-- Created with Vectornator (http://vectornator.io/) -->
<svg height="500.0pt" stroke-miterlimit="10" style="fill-rule:nonzero;clip-rule:evenodd;stroke-linecap:round;stroke-linejoin:round;" version="1.1" viewBox="0 0 500 500" width="500.0pt" xml:space="preserve" xmlns="http://www.w3.org/2000/svg" xmlns:xlink="http://www.w3.org/1999/xlink">
<defs/>
<g id="Layer-1">
<path d="M176.82 480.848C188.346 467.288 160.633 447.572 152.317 441.264C145.325 435.96 134.916 438.339 127.15 436.004C98.9039 427.512 66.6152 417.421 56.3431 385.575C35.218 320.081 69.528 255.612 70.5397 190.557C71.0261 159.283 59.3543 131.986 40.5908 108.829C38.2929 105.993 25.307 99.7529 21.4788 98.2118C20.2288 97.7085 17.4495 98.5385 17.4495 98.5385C17.4495 98.5385 28.1776 95.6737 33.6537 95.8049C44.7896 96.0716 57.1271 99.9736 67.5433 103.601C91.3914 111.907 108.387 138.884 113.74 163.125C126.902 222.733 83.9729 303.191 125.733 356.018C139.39 373.294 183.66 363.986 204.392 385.735C219.521 401.607 221.218 445.614 245.372 450.954C265.809 455.472 272.109 424.36 270.472 410.388C265.077 364.333 228.351 331.023 231.31 282.563C232.673 260.231 251.389 234.828 270.632 224.824C277.243 221.387 285.034 218.717 292.052 216.395C294.532 215.574 304.124 213.431 301.287 215.24C266.2 237.622 261.969 278.105 280.424 313.054C286.838 325.202 298.164 333.021 305.449 344.079C317.214 361.937 325.789 381.79 331.673 402.383C337.355 422.268 340.337 443.425 339.091 463.835C338.835 468.015 337.959 483.24 331.915 482.871" fill="#d2402c" fill-rule="nonzero" opacity="1" stroke="#a11800" stroke-linecap="round" stroke-linejoin="round" stroke-width="4.37242"/>
</g>
</svg>
