<?xml version="1.0" encoding="UTF-8" standalone="no"?>
<!DOCTYPE svg PUBLIC "-//W3C//DTD SVG 1.1//EN" "http://www.w3.org/Graphics/SVG/1.1/DTD/svg11.dtd">
<!-- Created with Vectornator (http://vectornator.io/) -->
<svg height="500.0pt" stroke-miterlimit="10" style="fill-rule:nonzero;clip-rule:evenodd;stroke-linecap:round;stroke-linejoin:round;" version="1.1" viewBox="0 0 500 500" width="500.0pt" xml:space="preserve" xmlns="http://www.w3.org/2000/svg" xmlns:xlink="http://www.w3.org/1999/xlink">
<defs/>
<g id="Layer-1">
<path d="M230.032 231.385C231.986 232.362 239.659 232.51 241.91 231.385" fill="none" opacity="1" stroke="#ffffff" stroke-linecap="round" stroke-linejoin="round" stroke-width="1"/>
<path d="M181.488 485.043C189.639 473.538 177.204 451.169 169.154 442.551C148.772 420.729 123.203 413.647 95.1387 408.82C79.6956 406.163 67.3638 412.274 54.7828 399.273C39.5158 383.497 29.8078 358.552 37.808 336.449C40.0526 330.248 42.2435 319.57 47.0455 314.923C48.7282 313.295 55.0793 305.257 53.6386 306.562C41.9417 317.149 65.1055 356.559 74.3041 364.649C87.6826 376.414 115.943 371.104 132.34 372.353C148.043 373.549 164.211 383.239 176.793 392.154C197.848 407.073 212.783 471.181 241.873 468.679C246.271 468.301 254.28 462.342 258.007 460.06C278.123 447.741 257.882 394.314 247.404 380.697C218.408 343.013 190.503 303.166 182.896 254.784C171.749 183.889 219.284 116.375 287.796 99.1932C298.017 96.6301 315.586 87.0634 325.698 88.6208C327.943 88.9665 315.356 99.6785 313.764 101.218C305.508 109.209 295.32 114.523 287.06 122.399C266.489 142.015 251.814 172.02 249.889 200.326C247.105 241.258 277.378 268.305 299.743 298.813C310.002 312.807 311.438 330.248 315.487 346.395C318.061 356.658 322.529 366.333 324.763 376.694C329.694 399.562 327.71 430.05 325.465 453.052C324.692 460.971 322.988 470.117 320.677 477.731C319.588 481.317 316.596 488.207 316.596 488.207C316.596 488.207 318.077 486.588 318.71 485.695" fill="#d2402c" fill-rule="nonzero" opacity="1" stroke="#a11800" stroke-linecap="round" stroke-linejoin="round" stroke-width="3.71886"/>
</g>
</svg>
