<?xml version="1.0" encoding="UTF-8" standalone="no"?>
<!DOCTYPE svg PUBLIC "-//W3C//DTD SVG 1.1//EN" "http://www.w3.org/Graphics/SVG/1.1/DTD/svg11.dtd">
<!-- Created with Vectornator (http://vectornator.io/) -->
<svg height="500.0pt" stroke-miterlimit="10" style="fill-rule:nonzero;clip-rule:evenodd;stroke-linecap:round;stroke-linejoin:round;" version="1.1" viewBox="0 0 607.789 500" width="607.7885899128298pt" xml:space="preserve" xmlns="http://www.w3.org/2000/svg" xmlns:xlink="http://www.w3.org/1999/xlink">
<defs/>
<g id="Layer-1">
<path d="M232.342 483.634C241.151 470.309 228.257 447.868 214.863 442.137C186.665 430.073 152.733 428.886 122.952 423.294C112.544 421.339 102.329 422.088 92.5461 416.88C69.6934 404.714 59.8414 362.581 53.6527 339.839C35.9959 274.954 52.4399 205.848 46.0508 139.766C45.0852 129.779 48.014 120.402 46.4308 110.075C44.4867 97.394 35.2431 82.6846 29.5621 72.8315C26.367 67.2899 28.2341 59.2001 23.4536 54.2501C22.6451 53.413 17.3225 46.6274 16.7035 48.9322C15.6969 52.6801 43.7929 61.0922 47.2406 63.5596C62.9756 74.8204 79.016 94.2583 84.839 112.797C102.753 169.83 91.7226 230.298 105.605 287.782C109.951 305.776 114.276 326.096 130.046 338.158C146.778 350.958 168.183 364.284 189.339 367.519C211.503 370.908 244.098 368.758 262.537 384.258C292.448 409.401 281.788 470.527 333.275 455.831C345.034 452.475 335.43 418.916 333.207 412.585C326.426 393.27 320.785 374.28 311.612 355.962C302.857 338.479 288.96 323.647 287.757 303.406C285.975 273.424 304.093 248.894 332.536 238.907C340.216 236.211 348.608 235.946 356.167 233.571C356.391 233.501 366.6 228.675 366.641 229.374C366.848 232.853 351.726 246.358 349.598 249.332C339.211 263.845 332.528 286.898 333.581 304.615C334.679 323.088 339.046 344.038 345.873 361.075C351.886 376.081 363.561 386.681 373.826 398.375C395.42 422.976 381.542 462.404 367.131 484.202" fill="#d2402c" fill-rule="nonzero" opacity="1" stroke="#a11800" stroke-linecap="round" stroke-linejoin="round" stroke-width="3.87337"/>
</g>
</svg>
