<?xml version="1.0" encoding="UTF-8" standalone="no"?>
<!DOCTYPE svg PUBLIC "-//W3C//DTD SVG 1.1//EN" "http://www.w3.org/Graphics/SVG/1.1/DTD/svg11.dtd">
<!-- Created with Vectornator (http://vectornator.io/) -->
<svg height="500.0pt" stroke-miterlimit="10" style="fill-rule:nonzero;clip-rule:evenodd;stroke-linecap:round;stroke-linejoin:round;" version="1.1" viewBox="0 0 500 500" width="500.0pt" xml:space="preserve" xmlns="http://www.w3.org/2000/svg" xmlns:xlink="http://www.w3.org/1999/xlink">
<defs/>
<g id="Layer-1">
<path d="M230.032 231.385C231.986 232.362 239.659 232.51 241.91 231.385" fill="none" opacity="1" stroke="#ffffff" stroke-linecap="round" stroke-linejoin="round" stroke-width="1"/>
<path d="M184.466 478.353C162.918 471.17 144.616 423.378 142.409 403.516C137.196 356.598 179.85 324.407 183.847 280.437C186.117 255.474 184.46 232.804 171.478 211.166C165.299 200.868 153.576 194.701 149.831 182.716C141.119 154.839 147.145 125.138 160.345 99.8386C173.007 75.5702 194.685 56.853 218.318 42.5455C227.291 37.1136 236.546 32.3173 245.696 28.0941C256.661 23.0332 267.298 17.8281 279.094 15.1059C285.043 13.7331 297.03 11.395 297.03 11.395C297.03 11.395 287.875 14.2236 284.042 16.9614C276.081 22.6481 267.671 27.6328 259.921 33.6605C238.047 50.6735 214.092 75.5914 210.442 104.787C208.14 123.203 207.016 142.523 213.535 160.45C227.911 199.985 256.341 216.928 260.54 263.119C265.207 314.454 203.818 356.869 231.471 412.175C235.655 420.544 244.772 421.061 251.262 425.781C254.589 428.201 256.668 432.72 260.54 434.44C280.384 443.26 300.736 417.094 297.03 398.568C294.832 387.576 289.173 376.485 281.568 368.881C280.49 367.803 267.343 362.86 267.343 362.077C267.343 359.527 272.25 363.513 274.765 363.933C279.013 364.641 283.668 363.419 287.753 365.17C298.266 369.675 315.056 381.664 319.915 393.002C327.149 409.881 335.702 437.468 331.047 456.087C329.514 462.22 330.51 480.154 324.862 483.919C323.172 485.046 322.618 476.956 324.244 480.208" fill="#d2402c" fill-rule="nonzero" opacity="1" stroke="#a11800" stroke-linecap="round" stroke-linejoin="round" stroke-width="3.51753"/>
</g>
</svg>
