<?xml version="1.0" encoding="UTF-8" standalone="no"?>
<!DOCTYPE svg PUBLIC "-//W3C//DTD SVG 1.1//EN" "http://www.w3.org/Graphics/SVG/1.1/DTD/svg11.dtd">
<!-- Created with Vectornator (http://vectornator.io/) -->
<svg height="564.6537762494838pt" stroke-miterlimit="10" style="fill-rule:nonzero;clip-rule:evenodd;stroke-linecap:round;stroke-linejoin:round;" version="1.1" viewBox="0 0 578.997 564.654" width="578.9970210952242pt" xml:space="preserve" xmlns="http://www.w3.org/2000/svg" xmlns:xlink="http://www.w3.org/1999/xlink">
<defs/>
<g id="Layer-1">
<path d="M230.032 231.385C231.986 232.362 239.659 232.51 241.91 231.385" fill="none" opacity="1" stroke="#ffffff" stroke-linecap="round" stroke-linejoin="round" stroke-width="1"/>
<path d="M230.994 544.814C234.296 545.981 231.15 535.151 231.08 534.592C229.838 524.634 224.968 517.054 220.95 507.947C211.689 486.957 190.598 469.743 171.197 458.334C145.41 443.168 109.101 448.138 85.2447 429.572C45.183 398.395 46.1357 310.149 72.9731 271.136C73.9569 269.706 88.3792 253.398 88.4778 253.546C89.2058 254.639 87.5719 256.03 86.8849 257.149C82.4058 264.443 80.4292 272.833 79.0026 281.276C75.4399 302.361 74.7178 330.431 89.9596 347.299C111.596 371.244 136.151 378.635 166.694 384.017C180.229 386.403 196.126 384.944 209.002 390.313C222.429 395.912 237.694 407.2 248.373 416.716C254.415 422.1 262.447 432.982 264.955 440.514C273.941 467.499 271.06 504.858 301.714 516.934C309.222 519.892 318.149 519.833 325.425 516.019C357.002 499.465 352.854 433.495 341.122 407.19C331.439 385.479 315.781 370.021 301.509 351.548C280.162 323.916 259.784 290.709 252.858 256.19C249.366 238.785 244.766 217.052 245.082 199.299C245.921 152.241 280.734 92.6089 322.115 69.2069C339.581 59.3293 357.324 54.9633 376.16 49.5332C401.986 42.0879 434.684 36.9494 461.368 45.0328C471.469 48.0927 480.431 54.0147 489.012 59.2836C490.131 59.9706 493.421 59.8404 492.614 60.8765C492.454 61.0825 452.062 62.2412 448.544 62.2884C408.217 62.8295 352.455 84.3916 351.086 132.303C349.92 173.102 373.242 194.32 390.939 228.078C401.281 247.805 409.695 269.303 414.465 291.172C426.613 346.876 418.981 414.893 404.696 469.375C400.913 483.802 390.141 499.742 381.309 511.092C374.998 519.201 371.208 536.058 367.894 545.439" fill="#d2402c" fill-rule="nonzero" opacity="1" stroke="#a11800" stroke-linecap="round" stroke-linejoin="round" stroke-width="4.41827"/>
</g>
</svg>
