<?xml version="1.0" encoding="UTF-8" standalone="no"?>
<!DOCTYPE svg PUBLIC "-//W3C//DTD SVG 1.1//EN" "http://www.w3.org/Graphics/SVG/1.1/DTD/svg11.dtd">
<!-- Created with Vectornator (http://vectornator.io/) -->
<svg height="500.0pt" stroke-miterlimit="10" style="fill-rule:nonzero;clip-rule:evenodd;stroke-linecap:round;stroke-linejoin:round;" version="1.1" viewBox="0 0 500 500" width="500.0pt" xml:space="preserve" xmlns="http://www.w3.org/2000/svg" xmlns:xlink="http://www.w3.org/1999/xlink">
<defs/>
<g id="Layer-1">
<g opacity="1">
<path d="M174.968 62.6267C173.208 62.7339 172.052 62.9756 171.749 63.3979C171.458 63.8037 172.112 64.3409 172.453 64.7055C178.404 71.0684 189.314 77.197 196.426 81.8722C214.179 93.5417 240.185 106.803 254.129 123.213C290.529 166.051 267.19 220.502 235.655 258.266C228.441 266.904 222.281 267.132 213.593 272.952C200.207 281.919 182.614 297.172 172.587 309.465C133.85 356.954 122.343 431.198 149.989 483.579L296.073 484.417C297.588 474.914 295.517 465.095 300.566 456.32C315.188 430.909 343.844 419.047 372.552 421.383C383.283 422.257 393.407 426.658 404.17 420.981C414.486 415.54 422.802 403.032 429.45 393.756C446.13 370.482 451.457 340.982 446.852 313.119C445.523 305.08 443.857 296.75 440.984 289.146C439.885 286.237 439.248 285.557 438.034 282.91C437.325 281.365 434.591 277.048 435.385 278.551C441.105 289.389 439.346 302.366 437.9 314.125C429.799 380.004 392.969 360.342 345.998 365.29C334.646 366.486 322.059 374.02 312.435 379.976C292.219 392.487 276.856 450.085 251.38 437.578C227.892 426.047 249.384 372.54 259.494 356.07C293.026 301.437 390.055 283.278 374.363 202.709C361.076 134.493 293.574 86.8113 231.631 68.3601C230.16 67.922 187.289 61.8762 174.968 62.6267Z" fill="#d2402c" fill-rule="nonzero" opacity="1" stroke="#a11800" stroke-linecap="round" stroke-linejoin="round" stroke-width="4.07441"/>
</g>
</g>
</svg>
